Coordinates
version=1
nRows=12
nColumns=33
inDegrees=yes

Units are S.I. units (second, meters, Newtons, ...)
Angles are in degrees.

endheader
time	ground_thorax_rot_x	ground_thorax_rot_y	ground_thorax_rot_z	ground_thorax_tx	ground_thorax_ty	ground_thorax_tz	clav_prot_r	clav_elev_r	scapula_abduction_r	scapula_elevation_r	scapula_upward_rot_r	scapula_winging_r	shoulder_elv_r	plane_of_elev_r	axial_rot_r	elbow_flexion_r	pro_sup_r	wrist_flex_r	wrist_dev_r	clav_prot_l	clav_elev_l	scapula_abduction_l	scapula_elevation_l	scapula_upward_rot_l	scapula_winging_l	shoulder_elv_l	plane_of_elev_l	axial_rot_l	elbow_flexion_l	pro_sup_l	wrist_flex_l	wrist_dev_l
      7.70000000	     39.20446188	     13.02040623	     14.48303068	   -113.82598175	    782.71797963	      4.80263861	     17.74014722	     39.68389185	     41.80135455	     45.00000000	    -37.37248019	  -2239.91529219	  -1190.96433777	    143.26668689	    179.99999979	   2170.47630414	     50.49012780	     22.07605158	     11.65610775	      5.73923387	    -45.00000000	    -39.68303051	     45.00000000	    -40.87664997	   2245.75350167	  -3335.09475142	    133.99551904	   -179.99999979	    370.03284452	   -318.93219663	      7.27061974	    -21.51501542
      7.71000000	     39.30423281	     12.91927717	     14.32794028	   -116.21180587	    783.84594087	      4.67295814	     17.57063840	     39.66414862	     41.79265241	     45.00000000	    -37.31583667	  -2240.11259236	  -1190.83720884	    143.27544999	    179.99999979	   2170.60073500	     50.35907986	     22.10362754	     11.60724424	      5.67541274	    -45.00000000	    -39.66022616	     45.00000000	    -40.72499920	   2246.01860454	  -3334.99265050	    134.03446193	   -179.99999979	    370.16811028	   -318.79854595	      7.12956347	    -21.55102513
      7.72000000	     39.40229993	     12.81600000	     14.16586120	   -118.64343708	    785.00584856	      4.53853304	     17.38238239	     39.55237233	     41.83785420	     45.00000000	    -37.22590196	  -2240.33744581	  -1190.77257170	    143.34468756	    179.99999979	   2170.63124369	     50.26582442	     22.14550224	     11.58613449	      5.64599447	    -45.00000000	    -39.63178332	     45.00000000	    -40.54401492	   2246.26964015	  -3334.88926061	    134.01787657	   -179.99999979	    370.26393754	   -318.69070768	      6.99630684	    -21.57574955
      7.73000000	     39.42124500	     12.85397317	     14.22145856	   -121.11524779	    786.19462276	      4.40061545	     17.40715420	     39.53365145	     41.72118091	     45.00000000	    -37.53820215	  -2240.46156103	  -1190.46458587	    143.24341501	    179.99999979	   2170.81360877	     50.10254307	     22.11222982	     11.44146219	      5.76723080	    -45.00000000	    -39.63573112	     45.00000000	    -40.69115856	   2246.60029611	  -3334.68901406	    134.04696879	   -179.99999979	    370.43502904	   -318.57324191	      6.93021687	    -21.65011048
      7.74000000	     39.31176081	     13.47777007	     14.99110252	   -123.62576636	    787.41293318	      4.26262365	     17.60986205	     39.00778334	     41.53494931	     45.00000000	    -38.94355895	  -2240.63660666	  -1189.93487356	    142.91103540	    179.99999979	   2170.90262272	     49.86720217	     22.07303850	     11.35440758	      6.27563574	    -45.00000000	    -39.13287821	     45.00000000	    -42.55399910	   2246.89880503	  -3333.95999938	    133.69432468	   -179.99999979	    370.65181353	   -318.49361168	      6.84181976	    -21.68159476
      7.75000000	     39.38078192	     13.50062726	     14.97957934	   -126.16108783	    788.65805243	      4.12735531	     17.51202950	     38.90747286	     41.52220093	     45.00000000	    -39.07427103	  -2240.83069009	  -1189.73400944	    142.93224931	    179.99999979	   2170.97692629	     49.71880767	     22.09035165	     11.28583260	      6.34425553	    -45.00000000	    -39.08260081	     45.00000000	    -42.67876685	   2247.17222641	  -3333.79831624	    133.69047094	   -179.99999979	    370.75269585	   -318.48648620	      6.75000306	    -21.70799203
      7.76000000	     39.42684250	     13.44633830	     14.86556384	   -128.72904505	    789.93332141	      3.99686443	     17.48016107	     38.89706621	     41.41649632	     45.00000000	    -39.20443802	  -2240.99664216	  -1189.48738412	    142.85024921	    179.99999979	   2171.10547231	     49.65775266	     22.08411560	     11.16783841	      6.41079094	    -45.00000000	    -39.09796293	     45.00000000	    -42.61125390	   2247.47839891	  -3333.61094856	    133.68779021	   -179.99999979	    370.89549576	   -318.52523697	      6.69645911	    -21.75684315
      7.77000000	     39.47166265	     13.45759172	     14.87745548	   -131.31584257	    791.23171114	      3.87174024	     17.32035888	     38.74322974	     41.41697084	     45.00000000	    -39.39893121	  -2241.20110206	  -1189.32468556	    142.84634030	    179.99999979	   2171.19371626	     49.63146011	     22.12302143	     11.05986819	      6.43263460	    -45.00000000	    -38.99767447	     45.00000000	    -42.74398711	   2247.77758128	  -3333.44519751	    133.67110675	   -179.99999979	    370.97490311	   -318.60845238	      6.62048284	    -21.79317019
      7.78000000	     39.52411452	     13.27841025	     14.54478042	   -133.92384789	    792.55311654	      3.75185431	     17.29654171	     39.09939512	     41.23348402	     45.00000000	    -39.28727564	  -2241.22529689	  -1189.02858149	    142.84848501	    179.99999979	   2171.31322726	     49.66600664	     22.08940660	     10.93648983	      6.37467687	    -45.00000000	    -39.27158091	     45.00000000	    -42.27635350	   2247.98005646	  -3333.32587807	    133.85620814	   -179.99999979	    371.10451868	   -318.71019181	      6.60001250	    -21.84419659
      7.79000000	     39.56344929	     13.32824439	     14.62657238	   -136.55336666	    793.89871713	      3.63517154	     17.23002695	     38.79141752	     41.19358558	     45.00000000	    -39.66613607	  -2241.47760031	  -1188.79627181	    142.70963504	    179.99999979	   2171.41419356	     49.70796327	     22.10477864	     10.79708575	      6.53323850	    -45.00000000	    -39.07720817	     45.00000000	    -42.63542341	   2248.35863563	  -3333.08460206	    133.68402405	   -179.99999979	    371.18111658	   -318.87446713	      6.57017932	    -21.87981913
      7.80000000	     39.71477595	     12.85285594	     13.96371236	   -139.19647316	    795.26797105	      3.52060432	     16.77499065	     39.28563390	     41.19067365	     45.00000000	    -38.64857303	  -2241.55433860	  -1188.89307001	    143.07435325	    179.99999979	   2171.44500538	     49.78574477	     22.19618785	     10.73416350	      6.03422109	    -45.00000000	    -39.37097468	     45.00000000	    -41.27198805	   2248.49662852	  -3333.28958377	    134.06857685	   -179.99999979	    371.14927158	   -319.01764785	      6.48758699	    -21.91882273
      7.81000000	     39.65839366	     13.22149698	     14.49679963	   -141.85592961	    796.66632922	      3.40600026	     17.00389014	     38.70324766	     41.02168370	     45.00000000	    -40.05115284	  -2241.82240616	  -1188.32044898	    142.57889161	    179.99999979	   2171.69081934	     49.86260154	     22.15050010	     10.50374662	      6.59200368	    -45.00000000	    -38.98940843	     45.00000000	    -42.62738708	   2248.94351935	  -3332.80189755	    133.71167831	   -179.99999979	    371.34323679	   -319.30636193	      6.49783229	    -21.95631344
